<svg xmlns="http://www.w3.org/2000/svg" width="682.667" height="682.667" viewBox="0 0 512 512" preserveAspectRatio="xMidYMid meet"><path d="M249.5 28.4c-3.7 1.7-7 5.2-8.4 8.9-.8 1.9-1.1 34.4-1.1 102.8V240l-101.4.2c-101.2.3-101.5.3-104.3 2.4-10 7.5-9.8 20.1.6 27.1l3.4 2.3h100.8H240l.2 101.4c.3 101.2.3 101.5 2.4 104.3 7.3 9.8 19.5 9.8 26.8 0 2.1-2.8 2.1-3.1 2.4-104.3L272 272h100.9 100.8l3.4-2.3c10.4-7 10.6-19.6.6-27.1-2.8-2.1-3.1-2.1-104.3-2.4L272 240l-.2-101.4c-.3-100.7-.3-101.5-2.4-104.2-1.1-1.5-3.2-3.7-4.6-4.7-3.4-2.5-11.3-3.2-15.3-1.3zM111.1 39c-11.3 2.4-25 8.1-34.1 14.3-6.6 4.5-17.6 15.4-22.5 22.2-5.6 7.8-9.6 16-13.1 26.5-2.6 8-2.8 9.6-2.8 25.5-.1 19.3.9 24.3 7.5 38.3 19.6 42.1 66.9 62.7 110.3 48.1 34-11.3 57.7-40.7 61.6-76.3 3-26.8-6.7-54.2-26.1-73.5-10.7-10.7-26-19.6-40.4-23.6-7-2-33.5-2.9-40.4-1.5zm31.4 32.5c13.7 3.5 28.4 14.2 35.3 25.8 6 10 8.4 18.8 8.4 30.7 0 16.7-5.1 29.2-16.8 41.1-11.6 11.7-24.6 17.1-41.4 17.1-17.1 0-29.1-5.1-41.5-17.6C75.2 157.1 70 144.4 70 128c0-16.6 5.3-29.3 17-41 7.9-7.9 16.1-12.7 26.3-15.5 7-1.8 21.9-1.9 29.2 0zm171-22.1c-4.1 1.8-8.3 6.9-9.1 11.1-1.6 8.6-1.4 8.9 28.9 39.2l28.2 28.3-28.2 28.2c-30.4 30.5-30.5 30.7-28.8 39.5.9 4.9 6.9 10.9 11.8 11.8 8.8 1.7 9 1.6 39.5-28.8l28.2-28.2 28.3 28.2c30.4 30.4 30.6 30.5 39.4 28.8 4.9-.9 10.9-6.9 11.8-11.8 1.7-8.8 1.6-9-28.8-39.5L406.5 128l28.2-28.3c30.4-30.4 30.5-30.6 28.8-39.4-.9-4.9-6.9-10.9-11.8-11.8-8.8-1.7-9-1.6-39.5 28.8L384 105.5l-27.8-27.7c-15.2-15.2-29-28.2-30.5-28.8-3.8-1.4-8.5-1.2-12.2.4zM370.7 294c-31.2 5-58.9 26.6-70.3 55-5 12.1-6.6 20.7-6.6 34-.1 25 7.5 44.4 24.1 62.2 9 9.6 17.1 15.6 28.3 20.7 13.6 6.3 20.1 7.6 37.8 7.6s24.2-1.3 37.7-7.5c10.4-4.8 16.1-8.7 24.7-16.9 12.5-12 20.9-26.3 25.3-43 3.4-12.9 3.6-31.7.5-43.3-5.6-20.7-15.8-37-31.2-49.5-8.2-6.7-24.1-14.7-34.5-17.3-9.2-2.4-27.1-3.4-35.8-2zm29.5 33.4c25.3 7.9 42 29.9 42.2 55.6.1 16.7-5.4 30.1-17.4 42-11.8 11.8-24.3 17-41 17-16.6 0-29.2-5.2-41.1-17.1-11.9-11.8-17.4-25.1-17.3-41.9.3-28 20.8-51.8 49.4-57.4 4.4-.8 20.4.3 25.2 1.8zm-342.7-22c-4.1 1.8-8.3 6.9-9.1 11.1-1.6 8.6-1.4 8.9 28.9 39.2l28.2 28.3-28.2 28.2c-30.4 30.5-30.5 30.7-28.8 39.5.9 4.9 6.9 10.9 11.8 11.8 8.8 1.7 9 1.6 39.5-28.8l28.2-28.2 28.3 28.2c30.4 30.4 30.6 30.5 39.4 28.8 4.9-.9 10.9-6.9 11.8-11.8 1.7-8.8 1.6-9-28.8-39.5L150.5 384l28.2-28.3c30.4-30.4 30.5-30.6 28.8-39.4-.9-4.9-6.9-10.9-11.8-11.8-8.8-1.7-9-1.6-39.5 28.8L128 361.5l-27.8-27.7c-15.2-15.2-29-28.2-30.5-28.8-3.8-1.4-8.5-1.2-12.2.4z"/></svg>